<svg xmlns="http://www.w3.org/2000/svg"  viewBox="0 0 100 100" width="100px" height="100px"><path d="M35.896,100c-2.264,0-4.431-0.965-5.945-2.647s-2.248-3.938-2.011-6.19 l0.805-7.648c-2.004-2.497-3.687-5.427-4.731-8.282C23.211,73.034,22.427,67.289,22,64c-4.298-2.381-8-5.444-8-14.5 c0-6.085,2.549-9.173,4.687-10.69c0.417-0.297,0.856-0.56,1.313-0.786V31C20,11.217,39.167,2,52.12,2 c8.368,0,12.605,2.915,14.678,5.319C73.846,8.972,84,15.315,84,31v7.035c0.454,0.225,0.891,0.484,1.305,0.778 C87.448,40.329,90,43.412,90,49.5c0,9.072-3.88,14.337-8.178,16.721c-0.427,3.29-1.034,6.843-1.837,9.041 c-1.018,2.783-2.59,5.562-4.517,8.01l0.831,7.891c0.237,2.251-0.496,4.508-2.011,6.19C72.773,99.035,70.606,100,68.343,100H35.896z" opacity=".35"/><path fill="#f2f2f2" d="M33.896,98c-2.264,0-4.431-0.965-5.945-2.647s-2.248-3.938-2.011-6.19l0.805-7.648 c-2.004-2.497-3.687-5.427-4.731-8.282c-0.803-2.197-1.41-5.749-1.837-9.038C15.88,61.812,12,56.556,12,47.5 c0-6.085,2.549-9.173,4.687-10.69c0.417-0.297,0.856-0.56,1.313-0.786V29C18,9.217,37.167,0,50.12,0 c8.368,0,12.605,2.915,14.678,5.319C71.846,6.972,82,13.315,82,29v7.035c0.454,0.225,0.891,0.484,1.305,0.778 C85.448,38.329,88,41.412,88,47.5c0,9.072-3.88,14.337-8.178,16.721c-0.427,3.29-1.034,6.843-1.837,9.041 c-1.018,2.783-2.59,5.562-4.517,8.01l0.831,7.891c0.237,2.251-0.496,4.508-2.011,6.19C70.773,97.035,68.606,98,66.343,98H33.896z"/><path fill="#f2b791" d="M65.764,93H34.475V66.6h31.289V93z"/><path fill="#40396e" d="M63.853,74.422L50.12,93l0,0h16.223c1.781,0,3.17-1.543,2.984-3.314L67.72,74.422H63.853z M36.386,74.422L50.12,93l0,0H33.897c-1.781,0-3.17-1.543-2.984-3.314l1.607-15.264H36.386z"/><path fill="#ffd7bd" d="M46.209,86.156c-5.743,0-19.556-14.667-19.556-21.511v-5.109l-6.52-3.856l-0.972-8.109l0.972-5.275 l6.52,0.234V31.4c0,0,0.571-15.644,23.467-15.644S73.586,31.4,73.586,31.4v12.217l3.911-2.157l3.914,3.63l-1.009,9.214 l-6.816,7.011v3.329c0,5.916-13.566,21.511-19.556,21.511H46.209z"/><path fill="none" stroke="#40396e" stroke-linecap="round" stroke-linejoin="round" stroke-miterlimit="10" stroke-width="3" d="M24.209,41.667c0,0-5.709-1.989-5.709,5.833s3.753,11.767,7.664,11.767c0,0,0.781,8.519,1.956,11.733 c0.887,2.426,2.536,5.312,4.811,7.73"/><path fill="none" stroke="#40396e" stroke-linecap="round" stroke-linejoin="round" stroke-miterlimit="10" stroke-width="3" d="M75.791,41.697c0,0,5.709-2.019,5.709,5.803s-3.753,11.797-7.664,11.797c0,0-0.781,8.519-1.956,11.733 c-0.887,2.426-2.536,5.312-4.811,7.73"/><path fill="#40396e" d="M38.546,55c-1.015,0-5.839-0.207-8.036-2.003c-2.801-2.29-2.907-7.224-2.009-9.015 C29.506,41.978,31.515,41,38.4,41c4.416,0,8.182,0.228,8.182,7.992C46.582,48.992,46.415,55,38.546,55z"/><path fill="#40396e" d="M53.603,48.992c0-7.763,3.729-7.992,8.101-7.992c6.816,0,8.805,0.978,9.8,2.981 c0.889,1.792,0.784,6.726-1.989,9.015C67.339,54.793,62.563,55,61.559,55C53.768,55,53.603,48.992,53.603,48.992z"/><path fill="#40396e" d="M68.697,49h-35.2v-3.909h35.2V49z"/><path fill="#40396e" d="M23,29c0,8.8,0,12,0,12l3.111,6.471C26.604,48.391,28,48.041,28,46.997V38 c0,0-1.287-17.736,15.454-18.32c0.516-0.018,1.029,0.139,1.458,0.425l3.433,2.288c1.075,0.717,2.475,0.717,3.55,0l3.433-2.288 c0.43-0.286,0.942-0.443,1.458-0.426C73.647,20.26,72,38,72,38v8.885c0,1.127,1.492,1.526,2.054,0.55L77,41V29 C77,11.235,61.853,9.889,61.853,9.889S60.287,5,50.12,5S23,12.125,23,29z"/></svg>